# xmcd
#
# Track frame offsets: 
#        150
#        22771
#        43585
#        62425
#        82604
#        101498
#        124975
#        144176
#        166496
#        187305
#        208640
#        228137
#
# Disc length: 3329 seconds
#
# Revision: 5
# Processed by: cddbd v1.5.2PL0 Copyright (c) Steve Scherf et al.
# Submitted via: ExactAudioCopy v1.0b3
#
DISCID=910cff0c
DTITLE=angela - Land Ho!
DYEAR=2009
DGENRE=JPop
TTITLE0=Galactic material
TTITLE1=Spiral
TTITLE2=Beautiful fighter
TTITLE3=Hikari, Sagase Nakutomo
TTITLE4=Mangetsu All Night
TTITLE5=SONGS
TTITLE6=Fine!
TTITLE7=Koko ni iru yo
TTITLE8=innocence
TTITLE9=Beginning
TTITLE10=My story
TTITLE11=Panorama
EXTD=YEAR: 2009
EXTT0=
EXTT1=
EXTT2=
EXTT3=
EXTT4=
EXTT5=
EXTT6=
EXTT7=
EXTT8=
EXTT9=
EXTT10=
EXTT11=
PLAYORDER=
